<?xml version="1.0" encoding="UTF-8" ?>
<svg version="1.1" width="196" height="80" xmlns="http://www.w3.org/2000/svg" shape-rendering="crispEdges">
<rect x="0" y="0" width="64" height="1" fill="#000000" />
<rect x="65" y="0" width="64" height="1" fill="#000000" />
<rect x="130" y="0" width="64" height="1" fill="#000000" />
<rect x="0" y="1" width="1" height="79" fill="#000000" />
<rect x="1" y="1" width="47" height="10" fill="#663931" />
<rect x="48" y="1" width="1" height="64" fill="#000000" />
<rect x="49" y="1" width="6" height="64" fill="#847E87" />
<rect x="55" y="1" width="1" height="71" fill="#000000" />
<rect x="56" y="1" width="7" height="71" fill="#847E87" />
<rect x="63" y="1" width="1" height="79" fill="#000000" />
<rect x="65" y="1" width="1" height="79" fill="#000000" />
<rect x="66" y="1" width="47" height="10" fill="#663931" />
<rect x="113" y="1" width="1" height="64" fill="#000000" />
<rect x="114" y="1" width="4" height="64" fill="#847E87" />
<rect x="118" y="1" width="1" height="69" fill="#000000" />
<rect x="119" y="1" width="5" height="31" fill="#BEBEBE" />
<rect x="124" y="1" width="1" height="75" fill="#000000" />
<rect x="125" y="1" width="3" height="75" fill="#847E87" />
<rect x="128" y="1" width="1" height="79" fill="#000000" />
<rect x="130" y="1" width="1" height="79" fill="#000000" />
<rect x="131" y="1" width="47" height="10" fill="#663931" />
<rect x="178" y="1" width="1" height="64" fill="#000000" />
<rect x="179" y="1" width="1" height="64" fill="#847E87" />
<rect x="180" y="1" width="1" height="66" fill="#000000" />
<rect x="181" y="1" width="10" height="31" fill="#BEBEBE" />
<rect x="191" y="1" width="1" height="77" fill="#000000" />
<rect x="192" y="1" width="1" height="77" fill="#847E87" />
<rect x="193" y="1" width="1" height="79" fill="#000000" />
<rect x="1" y="11" width="29" height="35" fill="#663931" />
<rect x="30" y="11" width="15" height="37" fill="#847E87" />
<rect x="45" y="11" width="3" height="53" fill="#663931" />
<rect x="66" y="11" width="29" height="35" fill="#663931" />
<rect x="95" y="11" width="15" height="37" fill="#847E87" />
<rect x="110" y="11" width="3" height="53" fill="#663931" />
<rect x="131" y="11" width="29" height="35" fill="#663931" />
<rect x="160" y="11" width="15" height="37" fill="#847E87" />
<rect x="175" y="11" width="3" height="53" fill="#663931" />
<rect x="119" y="32" width="5" height="33" fill="#323C39" />
<rect x="181" y="32" width="10" height="33" fill="#323C39" />
<rect x="1" y="46" width="1" height="18" fill="#997B53" />
<rect x="2" y="46" width="28" height="4" fill="#663931" />
<rect x="66" y="46" width="1" height="18" fill="#997B53" />
<rect x="67" y="46" width="28" height="4" fill="#663931" />
<rect x="131" y="46" width="1" height="18" fill="#997B53" />
<rect x="132" y="46" width="28" height="4" fill="#663931" />
<rect x="30" y="48" width="15" height="16" fill="#663931" />
<rect x="95" y="48" width="15" height="16" fill="#663931" />
<rect x="160" y="48" width="15" height="16" fill="#663931" />
<rect x="2" y="50" width="1" height="14" fill="#997B53" />
<rect x="3" y="50" width="27" height="2" fill="#663931" />
<rect x="67" y="50" width="1" height="14" fill="#997B53" />
<rect x="68" y="50" width="27" height="2" fill="#663931" />
<rect x="132" y="50" width="1" height="14" fill="#997B53" />
<rect x="133" y="50" width="27" height="2" fill="#663931" />
<rect x="3" y="52" width="1" height="12" fill="#997B53" />
<rect x="4" y="52" width="26" height="2" fill="#663931" />
<rect x="68" y="52" width="1" height="12" fill="#997B53" />
<rect x="69" y="52" width="26" height="2" fill="#663931" />
<rect x="133" y="52" width="1" height="12" fill="#997B53" />
<rect x="134" y="52" width="26" height="2" fill="#663931" />
<rect x="4" y="54" width="1" height="10" fill="#997B53" />
<rect x="5" y="54" width="25" height="1" fill="#663931" />
<rect x="69" y="54" width="1" height="10" fill="#997B53" />
<rect x="70" y="54" width="25" height="1" fill="#663931" />
<rect x="134" y="54" width="1" height="10" fill="#997B53" />
<rect x="135" y="54" width="25" height="1" fill="#663931" />
<rect x="5" y="55" width="1" height="9" fill="#997B53" />
<rect x="6" y="55" width="24" height="3" fill="#663931" />
<rect x="70" y="55" width="1" height="9" fill="#997B53" />
<rect x="71" y="55" width="24" height="3" fill="#663931" />
<rect x="135" y="55" width="1" height="9" fill="#997B53" />
<rect x="136" y="55" width="24" height="3" fill="#663931" />
<rect x="6" y="58" width="1" height="6" fill="#997B53" />
<rect x="7" y="58" width="23" height="2" fill="#663931" />
<rect x="71" y="58" width="1" height="6" fill="#997B53" />
<rect x="72" y="58" width="23" height="2" fill="#663931" />
<rect x="136" y="58" width="1" height="6" fill="#997B53" />
<rect x="137" y="58" width="23" height="2" fill="#663931" />
<rect x="7" y="60" width="1" height="4" fill="#997B53" />
<rect x="8" y="60" width="22" height="3" fill="#663931" />
<rect x="72" y="60" width="1" height="4" fill="#997B53" />
<rect x="73" y="60" width="22" height="3" fill="#663931" />
<rect x="137" y="60" width="1" height="4" fill="#997B53" />
<rect x="138" y="60" width="22" height="3" fill="#663931" />
<rect x="8" y="63" width="1" height="1" fill="#997B53" />
<rect x="9" y="63" width="21" height="1" fill="#663931" />
<rect x="73" y="63" width="1" height="1" fill="#997B53" />
<rect x="74" y="63" width="21" height="1" fill="#663931" />
<rect x="138" y="63" width="1" height="1" fill="#997B53" />
<rect x="139" y="63" width="21" height="1" fill="#663931" />
<rect x="1" y="64" width="47" height="1" fill="#000000" />
<rect x="66" y="64" width="47" height="1" fill="#000000" />
<rect x="131" y="64" width="47" height="1" fill="#000000" />
<rect x="1" y="65" width="13" height="1" fill="#C6AF77" />
<rect x="14" y="65" width="35" height="14" fill="#AD8B6A" />
<rect x="49" y="65" width="1" height="1" fill="#000000" />
<rect x="50" y="65" width="5" height="1" fill="#847E87" />
<rect x="66" y="65" width="13" height="1" fill="#C6AF77" />
<rect x="79" y="65" width="35" height="14" fill="#AD8B6A" />
<rect x="114" y="65" width="1" height="1" fill="#000000" />
<rect x="115" y="65" width="3" height="1" fill="#847E87" />
<rect x="119" y="65" width="5" height="5" fill="#595652" />
<rect x="131" y="65" width="13" height="1" fill="#C6AF77" />
<rect x="144" y="65" width="35" height="14" fill="#AD8B6A" />
<rect x="179" y="65" width="1" height="1" fill="#000000" />
<rect x="181" y="65" width="10" height="2" fill="#595652" />
<rect x="1" y="66" width="12" height="1" fill="#C6AF77" />
<rect x="13" y="66" width="1" height="13" fill="#AD8B6A" />
<rect x="49" y="66" width="1" height="13" fill="#AD8B6A" />
<rect x="50" y="66" width="1" height="1" fill="#000000" />
<rect x="51" y="66" width="4" height="1" fill="#847E87" />
<rect x="66" y="66" width="12" height="1" fill="#C6AF77" />
<rect x="78" y="66" width="1" height="13" fill="#AD8B6A" />
<rect x="114" y="66" width="1" height="13" fill="#AD8B6A" />
<rect x="115" y="66" width="1" height="1" fill="#000000" />
<rect x="116" y="66" width="2" height="1" fill="#847E87" />
<rect x="131" y="66" width="12" height="1" fill="#C6AF77" />
<rect x="143" y="66" width="1" height="13" fill="#AD8B6A" />
<rect x="179" y="66" width="1" height="13" fill="#AD8B6A" />
<rect x="1" y="67" width="11" height="1" fill="#C6AF77" />
<rect x="12" y="67" width="1" height="12" fill="#AD8B6A" />
<rect x="50" y="67" width="1" height="12" fill="#AD8B6A" />
<rect x="51" y="67" width="1" height="1" fill="#000000" />
<rect x="52" y="67" width="3" height="1" fill="#847E87" />
<rect x="66" y="67" width="11" height="1" fill="#C6AF77" />
<rect x="77" y="67" width="1" height="12" fill="#AD8B6A" />
<rect x="115" y="67" width="1" height="12" fill="#AD8B6A" />
<rect x="116" y="67" width="1" height="1" fill="#000000" />
<rect x="117" y="67" width="1" height="1" fill="#847E87" />
<rect x="131" y="67" width="11" height="1" fill="#C6AF77" />
<rect x="142" y="67" width="1" height="12" fill="#AD8B6A" />
<rect x="180" y="67" width="1" height="12" fill="#AD8B6A" />
<rect x="181" y="67" width="1" height="1" fill="#000000" />
<rect x="182" y="67" width="9" height="1" fill="#595652" />
<rect x="1" y="68" width="8" height="1" fill="#C6AF77" />
<rect x="9" y="68" width="1" height="11" fill="#AD8B6A" />
<rect x="10" y="68" width="1" height="1" fill="#C6AF77" />
<rect x="11" y="68" width="1" height="11" fill="#AD8B6A" />
<rect x="51" y="68" width="1" height="11" fill="#AD8B6A" />
<rect x="52" y="68" width="1" height="1" fill="#000000" />
<rect x="53" y="68" width="2" height="1" fill="#847E87" />
<rect x="66" y="68" width="8" height="1" fill="#C6AF77" />
<rect x="74" y="68" width="1" height="11" fill="#AD8B6A" />
<rect x="75" y="68" width="1" height="1" fill="#C6AF77" />
<rect x="76" y="68" width="1" height="11" fill="#AD8B6A" />
<rect x="116" y="68" width="1" height="11" fill="#AD8B6A" />
<rect x="117" y="68" width="1" height="1" fill="#000000" />
<rect x="131" y="68" width="8" height="1" fill="#C6AF77" />
<rect x="139" y="68" width="1" height="11" fill="#AD8B6A" />
<rect x="140" y="68" width="1" height="1" fill="#C6AF77" />
<rect x="141" y="68" width="1" height="11" fill="#AD8B6A" />
<rect x="181" y="68" width="1" height="11" fill="#AD8B6A" />
<rect x="182" y="68" width="1" height="1" fill="#000000" />
<rect x="183" y="68" width="8" height="1" fill="#595652" />
<rect x="1" y="69" width="7" height="1" fill="#C6AF77" />
<rect x="8" y="69" width="1" height="10" fill="#AD8B6A" />
<rect x="10" y="69" width="1" height="10" fill="#AD8B6A" />
<rect x="52" y="69" width="1" height="10" fill="#AD8B6A" />
<rect x="53" y="69" width="1" height="1" fill="#000000" />
<rect x="54" y="69" width="1" height="1" fill="#847E87" />
<rect x="66" y="69" width="7" height="1" fill="#C6AF77" />
<rect x="73" y="69" width="1" height="10" fill="#AD8B6A" />
<rect x="75" y="69" width="1" height="10" fill="#AD8B6A" />
<rect x="117" y="69" width="1" height="10" fill="#AD8B6A" />
<rect x="131" y="69" width="7" height="1" fill="#C6AF77" />
<rect x="138" y="69" width="1" height="10" fill="#AD8B6A" />
<rect x="140" y="69" width="1" height="10" fill="#AD8B6A" />
<rect x="182" y="69" width="1" height="10" fill="#AD8B6A" />
<rect x="183" y="69" width="1" height="1" fill="#000000" />
<rect x="184" y="69" width="7" height="1" fill="#595652" />
<rect x="1" y="70" width="6" height="1" fill="#C6AF77" />
<rect x="7" y="70" width="1" height="9" fill="#AD8B6A" />
<rect x="53" y="70" width="1" height="9" fill="#AD8B6A" />
<rect x="54" y="70" width="1" height="1" fill="#000000" />
<rect x="66" y="70" width="6" height="1" fill="#C6AF77" />
<rect x="72" y="70" width="1" height="9" fill="#AD8B6A" />
<rect x="118" y="70" width="1" height="9" fill="#AD8B6A" />
<rect x="119" y="70" width="1" height="1" fill="#000000" />
<rect x="120" y="70" width="4" height="1" fill="#595652" />
<rect x="131" y="70" width="6" height="1" fill="#C6AF77" />
<rect x="137" y="70" width="1" height="9" fill="#AD8B6A" />
<rect x="183" y="70" width="1" height="9" fill="#AD8B6A" />
<rect x="184" y="70" width="1" height="1" fill="#000000" />
<rect x="185" y="70" width="6" height="1" fill="#595652" />
<rect x="1" y="71" width="1" height="8" fill="#AD8B6A" />
<rect x="2" y="71" width="3" height="1" fill="#C6AF77" />
<rect x="5" y="71" width="2" height="8" fill="#AD8B6A" />
<rect x="54" y="71" width="1" height="8" fill="#AD8B6A" />
<rect x="66" y="71" width="1" height="8" fill="#AD8B6A" />
<rect x="67" y="71" width="3" height="1" fill="#C6AF77" />
<rect x="70" y="71" width="2" height="8" fill="#AD8B6A" />
<rect x="119" y="71" width="1" height="8" fill="#AD8B6A" />
<rect x="120" y="71" width="1" height="1" fill="#000000" />
<rect x="121" y="71" width="3" height="1" fill="#595652" />
<rect x="131" y="71" width="1" height="8" fill="#AD8B6A" />
<rect x="132" y="71" width="3" height="1" fill="#C6AF77" />
<rect x="135" y="71" width="2" height="8" fill="#AD8B6A" />
<rect x="184" y="71" width="1" height="8" fill="#AD8B6A" />
<rect x="185" y="71" width="1" height="1" fill="#000000" />
<rect x="186" y="71" width="5" height="1" fill="#595652" />
<rect x="2" y="72" width="3" height="7" fill="#AD8B6A" />
<rect x="55" y="72" width="1" height="7" fill="#AD8B6A" />
<rect x="56" y="72" width="1" height="1" fill="#000000" />
<rect x="57" y="72" width="6" height="1" fill="#847E87" />
<rect x="67" y="72" width="3" height="7" fill="#AD8B6A" />
<rect x="120" y="72" width="1" height="7" fill="#AD8B6A" />
<rect x="121" y="72" width="1" height="1" fill="#000000" />
<rect x="122" y="72" width="2" height="1" fill="#595652" />
<rect x="132" y="72" width="3" height="7" fill="#AD8B6A" />
<rect x="185" y="72" width="1" height="7" fill="#AD8B6A" />
<rect x="186" y="72" width="1" height="1" fill="#000000" />
<rect x="187" y="72" width="4" height="1" fill="#595652" />
<rect x="56" y="73" width="1" height="6" fill="#AD8B6A" />
<rect x="57" y="73" width="1" height="1" fill="#000000" />
<rect x="58" y="73" width="5" height="1" fill="#847E87" />
<rect x="121" y="73" width="1" height="6" fill="#AD8B6A" />
<rect x="122" y="73" width="1" height="1" fill="#000000" />
<rect x="123" y="73" width="1" height="1" fill="#595652" />
<rect x="186" y="73" width="1" height="6" fill="#AD8B6A" />
<rect x="187" y="73" width="1" height="1" fill="#000000" />
<rect x="188" y="73" width="3" height="1" fill="#595652" />
<rect x="57" y="74" width="1" height="5" fill="#AD8B6A" />
<rect x="58" y="74" width="1" height="1" fill="#000000" />
<rect x="59" y="74" width="4" height="1" fill="#847E87" />
<rect x="122" y="74" width="1" height="5" fill="#AD8B6A" />
<rect x="123" y="74" width="1" height="1" fill="#000000" />
<rect x="187" y="74" width="1" height="5" fill="#AD8B6A" />
<rect x="188" y="74" width="1" height="1" fill="#000000" />
<rect x="189" y="74" width="2" height="1" fill="#595652" />
<rect x="58" y="75" width="1" height="4" fill="#AD8B6A" />
<rect x="59" y="75" width="1" height="1" fill="#000000" />
<rect x="60" y="75" width="3" height="1" fill="#847E87" />
<rect x="123" y="75" width="1" height="4" fill="#AD8B6A" />
<rect x="188" y="75" width="1" height="4" fill="#AD8B6A" />
<rect x="189" y="75" width="1" height="1" fill="#000000" />
<rect x="190" y="75" width="1" height="1" fill="#595652" />
<rect x="59" y="76" width="1" height="3" fill="#AD8B6A" />
<rect x="60" y="76" width="1" height="1" fill="#000000" />
<rect x="61" y="76" width="2" height="1" fill="#847E87" />
<rect x="124" y="76" width="1" height="3" fill="#AD8B6A" />
<rect x="125" y="76" width="1" height="1" fill="#000000" />
<rect x="126" y="76" width="2" height="1" fill="#847E87" />
<rect x="189" y="76" width="1" height="3" fill="#AD8B6A" />
<rect x="190" y="76" width="1" height="1" fill="#000000" />
<rect x="60" y="77" width="1" height="2" fill="#AD8B6A" />
<rect x="61" y="77" width="1" height="1" fill="#000000" />
<rect x="62" y="77" width="1" height="1" fill="#847E87" />
<rect x="125" y="77" width="1" height="2" fill="#AD8B6A" />
<rect x="126" y="77" width="1" height="1" fill="#000000" />
<rect x="127" y="77" width="1" height="1" fill="#847E87" />
<rect x="190" y="77" width="1" height="2" fill="#AD8B6A" />
<rect x="61" y="78" width="1" height="1" fill="#AD8B6A" />
<rect x="62" y="78" width="1" height="2" fill="#000000" />
<rect x="126" y="78" width="1" height="1" fill="#AD8B6A" />
<rect x="127" y="78" width="1" height="2" fill="#000000" />
<rect x="191" y="78" width="1" height="1" fill="#AD8B6A" />
<rect x="192" y="78" width="1" height="2" fill="#000000" />
<rect x="1" y="79" width="61" height="1" fill="#000000" />
<rect x="66" y="79" width="61" height="1" fill="#000000" />
<rect x="131" y="79" width="61" height="1" fill="#000000" />
</svg>