<?xml version="1.0" encoding="UTF-8" ?>
<svg version="1.1" width="256" height="112" xmlns="http://www.w3.org/2000/svg" shape-rendering="crispEdges">
<rect x="16" y="16" width="64" height="1" fill="#000000" />
<rect x="96" y="16" width="64" height="1" fill="#000000" />
<rect x="176" y="16" width="64" height="1" fill="#000000" />
<rect x="16" y="17" width="1" height="79" fill="#000000" />
<rect x="17" y="17" width="47" height="10" fill="#663931" />
<rect x="64" y="17" width="1" height="64" fill="#000000" />
<rect x="65" y="17" width="6" height="64" fill="#847E87" />
<rect x="71" y="17" width="1" height="71" fill="#000000" />
<rect x="72" y="17" width="7" height="71" fill="#847E87" />
<rect x="79" y="17" width="1" height="79" fill="#000000" />
<rect x="96" y="17" width="1" height="79" fill="#000000" />
<rect x="97" y="17" width="47" height="10" fill="#663931" />
<rect x="144" y="17" width="1" height="64" fill="#000000" />
<rect x="145" y="17" width="4" height="64" fill="#847E87" />
<rect x="149" y="17" width="1" height="69" fill="#000000" />
<rect x="155" y="17" width="1" height="75" fill="#000000" />
<rect x="156" y="17" width="3" height="75" fill="#847E87" />
<rect x="159" y="17" width="1" height="79" fill="#000000" />
<rect x="176" y="17" width="1" height="79" fill="#000000" />
<rect x="177" y="17" width="47" height="10" fill="#663931" />
<rect x="224" y="17" width="1" height="64" fill="#000000" />
<rect x="225" y="17" width="1" height="64" fill="#847E87" />
<rect x="226" y="17" width="1" height="66" fill="#000000" />
<rect x="237" y="17" width="1" height="77" fill="#000000" />
<rect x="238" y="17" width="1" height="77" fill="#847E87" />
<rect x="239" y="17" width="1" height="79" fill="#000000" />
<rect x="17" y="27" width="29" height="35" fill="#663931" />
<rect x="46" y="27" width="15" height="37" fill="#847E87" />
<rect x="61" y="27" width="3" height="53" fill="#663931" />
<rect x="97" y="27" width="29" height="35" fill="#663931" />
<rect x="126" y="27" width="15" height="37" fill="#847E87" />
<rect x="141" y="27" width="3" height="53" fill="#663931" />
<rect x="177" y="27" width="29" height="35" fill="#663931" />
<rect x="206" y="27" width="15" height="37" fill="#847E87" />
<rect x="221" y="27" width="3" height="53" fill="#663931" />
<rect x="17" y="62" width="1" height="18" fill="#997B53" />
<rect x="18" y="62" width="28" height="4" fill="#663931" />
<rect x="97" y="62" width="1" height="18" fill="#997B53" />
<rect x="98" y="62" width="28" height="4" fill="#663931" />
<rect x="177" y="62" width="1" height="18" fill="#997B53" />
<rect x="178" y="62" width="28" height="4" fill="#663931" />
<rect x="46" y="64" width="15" height="16" fill="#663931" />
<rect x="126" y="64" width="15" height="16" fill="#663931" />
<rect x="206" y="64" width="15" height="16" fill="#663931" />
<rect x="18" y="66" width="1" height="14" fill="#997B53" />
<rect x="19" y="66" width="27" height="2" fill="#663931" />
<rect x="98" y="66" width="1" height="14" fill="#997B53" />
<rect x="99" y="66" width="27" height="2" fill="#663931" />
<rect x="178" y="66" width="1" height="14" fill="#997B53" />
<rect x="179" y="66" width="27" height="2" fill="#663931" />
<rect x="19" y="68" width="1" height="12" fill="#997B53" />
<rect x="20" y="68" width="26" height="2" fill="#663931" />
<rect x="99" y="68" width="1" height="12" fill="#997B53" />
<rect x="100" y="68" width="26" height="2" fill="#663931" />
<rect x="179" y="68" width="1" height="12" fill="#997B53" />
<rect x="180" y="68" width="26" height="2" fill="#663931" />
<rect x="20" y="70" width="1" height="10" fill="#997B53" />
<rect x="21" y="70" width="25" height="1" fill="#663931" />
<rect x="100" y="70" width="1" height="10" fill="#997B53" />
<rect x="101" y="70" width="25" height="1" fill="#663931" />
<rect x="180" y="70" width="1" height="10" fill="#997B53" />
<rect x="181" y="70" width="25" height="1" fill="#663931" />
<rect x="21" y="71" width="1" height="9" fill="#997B53" />
<rect x="22" y="71" width="24" height="3" fill="#663931" />
<rect x="101" y="71" width="1" height="9" fill="#997B53" />
<rect x="102" y="71" width="24" height="3" fill="#663931" />
<rect x="181" y="71" width="1" height="9" fill="#997B53" />
<rect x="182" y="71" width="24" height="3" fill="#663931" />
<rect x="22" y="74" width="1" height="6" fill="#997B53" />
<rect x="23" y="74" width="23" height="2" fill="#663931" />
<rect x="102" y="74" width="1" height="6" fill="#997B53" />
<rect x="103" y="74" width="23" height="2" fill="#663931" />
<rect x="182" y="74" width="1" height="6" fill="#997B53" />
<rect x="183" y="74" width="23" height="2" fill="#663931" />
<rect x="23" y="76" width="1" height="4" fill="#997B53" />
<rect x="24" y="76" width="22" height="3" fill="#663931" />
<rect x="103" y="76" width="1" height="4" fill="#997B53" />
<rect x="104" y="76" width="22" height="3" fill="#663931" />
<rect x="183" y="76" width="1" height="4" fill="#997B53" />
<rect x="184" y="76" width="22" height="3" fill="#663931" />
<rect x="24" y="79" width="1" height="1" fill="#997B53" />
<rect x="25" y="79" width="21" height="1" fill="#663931" />
<rect x="104" y="79" width="1" height="1" fill="#997B53" />
<rect x="105" y="79" width="21" height="1" fill="#663931" />
<rect x="184" y="79" width="1" height="1" fill="#997B53" />
<rect x="185" y="79" width="21" height="1" fill="#663931" />
<rect x="17" y="80" width="47" height="1" fill="#000000" />
<rect x="97" y="80" width="47" height="1" fill="#000000" />
<rect x="177" y="80" width="47" height="1" fill="#000000" />
<rect x="17" y="81" width="13" height="1" fill="#C6AF77" />
<rect x="30" y="81" width="35" height="14" fill="#AD8B6A" />
<rect x="65" y="81" width="1" height="1" fill="#000000" />
<rect x="66" y="81" width="5" height="1" fill="#847E87" />
<rect x="97" y="81" width="13" height="1" fill="#C6AF77" />
<rect x="110" y="81" width="35" height="14" fill="#AD8B6A" />
<rect x="145" y="81" width="1" height="1" fill="#000000" />
<rect x="146" y="81" width="3" height="1" fill="#847E87" />
<rect x="177" y="81" width="13" height="1" fill="#C6AF77" />
<rect x="190" y="81" width="35" height="14" fill="#AD8B6A" />
<rect x="225" y="81" width="1" height="1" fill="#000000" />
<rect x="17" y="82" width="12" height="1" fill="#C6AF77" />
<rect x="29" y="82" width="1" height="13" fill="#AD8B6A" />
<rect x="65" y="82" width="1" height="13" fill="#AD8B6A" />
<rect x="66" y="82" width="1" height="1" fill="#000000" />
<rect x="67" y="82" width="4" height="1" fill="#847E87" />
<rect x="97" y="82" width="12" height="1" fill="#C6AF77" />
<rect x="109" y="82" width="1" height="13" fill="#AD8B6A" />
<rect x="145" y="82" width="1" height="13" fill="#AD8B6A" />
<rect x="146" y="82" width="1" height="1" fill="#000000" />
<rect x="147" y="82" width="2" height="1" fill="#847E87" />
<rect x="177" y="82" width="12" height="1" fill="#C6AF77" />
<rect x="189" y="82" width="1" height="13" fill="#AD8B6A" />
<rect x="225" y="82" width="1" height="13" fill="#AD8B6A" />
<rect x="17" y="83" width="11" height="1" fill="#C6AF77" />
<rect x="28" y="83" width="1" height="12" fill="#AD8B6A" />
<rect x="66" y="83" width="1" height="12" fill="#AD8B6A" />
<rect x="67" y="83" width="1" height="1" fill="#000000" />
<rect x="68" y="83" width="3" height="1" fill="#847E87" />
<rect x="97" y="83" width="11" height="1" fill="#C6AF77" />
<rect x="108" y="83" width="1" height="12" fill="#AD8B6A" />
<rect x="146" y="83" width="1" height="12" fill="#AD8B6A" />
<rect x="147" y="83" width="1" height="1" fill="#000000" />
<rect x="148" y="83" width="1" height="1" fill="#847E87" />
<rect x="177" y="83" width="11" height="1" fill="#C6AF77" />
<rect x="188" y="83" width="1" height="12" fill="#AD8B6A" />
<rect x="226" y="83" width="1" height="12" fill="#AD8B6A" />
<rect x="227" y="83" width="1" height="1" fill="#000000" />
<rect x="17" y="84" width="8" height="1" fill="#C6AF77" />
<rect x="25" y="84" width="1" height="11" fill="#AD8B6A" />
<rect x="26" y="84" width="1" height="1" fill="#C6AF77" />
<rect x="27" y="84" width="1" height="11" fill="#AD8B6A" />
<rect x="67" y="84" width="1" height="11" fill="#AD8B6A" />
<rect x="68" y="84" width="1" height="1" fill="#000000" />
<rect x="69" y="84" width="2" height="1" fill="#847E87" />
<rect x="97" y="84" width="8" height="1" fill="#C6AF77" />
<rect x="105" y="84" width="1" height="11" fill="#AD8B6A" />
<rect x="106" y="84" width="1" height="1" fill="#C6AF77" />
<rect x="107" y="84" width="1" height="11" fill="#AD8B6A" />
<rect x="147" y="84" width="1" height="11" fill="#AD8B6A" />
<rect x="148" y="84" width="1" height="1" fill="#000000" />
<rect x="177" y="84" width="8" height="1" fill="#C6AF77" />
<rect x="185" y="84" width="1" height="11" fill="#AD8B6A" />
<rect x="186" y="84" width="1" height="1" fill="#C6AF77" />
<rect x="187" y="84" width="1" height="11" fill="#AD8B6A" />
<rect x="227" y="84" width="1" height="11" fill="#AD8B6A" />
<rect x="228" y="84" width="1" height="1" fill="#000000" />
<rect x="17" y="85" width="7" height="1" fill="#C6AF77" />
<rect x="24" y="85" width="1" height="10" fill="#AD8B6A" />
<rect x="26" y="85" width="1" height="10" fill="#AD8B6A" />
<rect x="68" y="85" width="1" height="10" fill="#AD8B6A" />
<rect x="69" y="85" width="1" height="1" fill="#000000" />
<rect x="70" y="85" width="1" height="1" fill="#847E87" />
<rect x="97" y="85" width="7" height="1" fill="#C6AF77" />
<rect x="104" y="85" width="1" height="10" fill="#AD8B6A" />
<rect x="106" y="85" width="1" height="10" fill="#AD8B6A" />
<rect x="148" y="85" width="1" height="10" fill="#AD8B6A" />
<rect x="177" y="85" width="7" height="1" fill="#C6AF77" />
<rect x="184" y="85" width="1" height="10" fill="#AD8B6A" />
<rect x="186" y="85" width="1" height="10" fill="#AD8B6A" />
<rect x="228" y="85" width="1" height="10" fill="#AD8B6A" />
<rect x="229" y="85" width="1" height="1" fill="#000000" />
<rect x="17" y="86" width="6" height="1" fill="#C6AF77" />
<rect x="23" y="86" width="1" height="9" fill="#AD8B6A" />
<rect x="69" y="86" width="1" height="9" fill="#AD8B6A" />
<rect x="70" y="86" width="1" height="1" fill="#000000" />
<rect x="97" y="86" width="6" height="1" fill="#C6AF77" />
<rect x="103" y="86" width="1" height="9" fill="#AD8B6A" />
<rect x="149" y="86" width="1" height="9" fill="#AD8B6A" />
<rect x="150" y="86" width="1" height="1" fill="#000000" />
<rect x="177" y="86" width="6" height="1" fill="#C6AF77" />
<rect x="183" y="86" width="1" height="9" fill="#AD8B6A" />
<rect x="229" y="86" width="1" height="9" fill="#AD8B6A" />
<rect x="230" y="86" width="1" height="1" fill="#000000" />
<rect x="17" y="87" width="1" height="8" fill="#AD8B6A" />
<rect x="18" y="87" width="3" height="1" fill="#C6AF77" />
<rect x="21" y="87" width="2" height="8" fill="#AD8B6A" />
<rect x="70" y="87" width="1" height="8" fill="#AD8B6A" />
<rect x="97" y="87" width="1" height="8" fill="#AD8B6A" />
<rect x="98" y="87" width="3" height="1" fill="#C6AF77" />
<rect x="101" y="87" width="2" height="8" fill="#AD8B6A" />
<rect x="150" y="87" width="1" height="8" fill="#AD8B6A" />
<rect x="151" y="87" width="1" height="1" fill="#000000" />
<rect x="177" y="87" width="1" height="8" fill="#AD8B6A" />
<rect x="178" y="87" width="3" height="1" fill="#C6AF77" />
<rect x="181" y="87" width="2" height="8" fill="#AD8B6A" />
<rect x="230" y="87" width="1" height="8" fill="#AD8B6A" />
<rect x="231" y="87" width="1" height="1" fill="#000000" />
<rect x="18" y="88" width="3" height="7" fill="#AD8B6A" />
<rect x="71" y="88" width="1" height="7" fill="#AD8B6A" />
<rect x="72" y="88" width="1" height="1" fill="#000000" />
<rect x="73" y="88" width="6" height="1" fill="#847E87" />
<rect x="98" y="88" width="3" height="7" fill="#AD8B6A" />
<rect x="151" y="88" width="1" height="7" fill="#AD8B6A" />
<rect x="152" y="88" width="1" height="1" fill="#000000" />
<rect x="178" y="88" width="3" height="7" fill="#AD8B6A" />
<rect x="231" y="88" width="1" height="7" fill="#AD8B6A" />
<rect x="232" y="88" width="1" height="1" fill="#000000" />
<rect x="72" y="89" width="1" height="6" fill="#AD8B6A" />
<rect x="73" y="89" width="1" height="1" fill="#000000" />
<rect x="74" y="89" width="5" height="1" fill="#847E87" />
<rect x="152" y="89" width="1" height="6" fill="#AD8B6A" />
<rect x="153" y="89" width="1" height="1" fill="#000000" />
<rect x="232" y="89" width="1" height="6" fill="#AD8B6A" />
<rect x="233" y="89" width="1" height="1" fill="#000000" />
<rect x="73" y="90" width="1" height="5" fill="#AD8B6A" />
<rect x="74" y="90" width="1" height="1" fill="#000000" />
<rect x="75" y="90" width="4" height="1" fill="#847E87" />
<rect x="153" y="90" width="1" height="5" fill="#AD8B6A" />
<rect x="154" y="90" width="1" height="1" fill="#000000" />
<rect x="233" y="90" width="1" height="5" fill="#AD8B6A" />
<rect x="234" y="90" width="1" height="1" fill="#000000" />
<rect x="74" y="91" width="1" height="4" fill="#AD8B6A" />
<rect x="75" y="91" width="1" height="1" fill="#000000" />
<rect x="76" y="91" width="3" height="1" fill="#847E87" />
<rect x="154" y="91" width="1" height="4" fill="#AD8B6A" />
<rect x="234" y="91" width="1" height="4" fill="#AD8B6A" />
<rect x="235" y="91" width="1" height="1" fill="#000000" />
<rect x="75" y="92" width="1" height="3" fill="#AD8B6A" />
<rect x="76" y="92" width="1" height="1" fill="#000000" />
<rect x="77" y="92" width="2" height="1" fill="#847E87" />
<rect x="155" y="92" width="1" height="3" fill="#AD8B6A" />
<rect x="156" y="92" width="1" height="1" fill="#000000" />
<rect x="157" y="92" width="2" height="1" fill="#847E87" />
<rect x="235" y="92" width="1" height="3" fill="#AD8B6A" />
<rect x="236" y="92" width="1" height="1" fill="#000000" />
<rect x="76" y="93" width="1" height="2" fill="#AD8B6A" />
<rect x="77" y="93" width="1" height="1" fill="#000000" />
<rect x="78" y="93" width="1" height="1" fill="#847E87" />
<rect x="156" y="93" width="1" height="2" fill="#AD8B6A" />
<rect x="157" y="93" width="1" height="1" fill="#000000" />
<rect x="158" y="93" width="1" height="1" fill="#847E87" />
<rect x="236" y="93" width="1" height="2" fill="#AD8B6A" />
<rect x="77" y="94" width="1" height="1" fill="#AD8B6A" />
<rect x="78" y="94" width="1" height="2" fill="#000000" />
<rect x="157" y="94" width="1" height="1" fill="#AD8B6A" />
<rect x="158" y="94" width="1" height="2" fill="#000000" />
<rect x="237" y="94" width="1" height="1" fill="#AD8B6A" />
<rect x="238" y="94" width="1" height="2" fill="#000000" />
<rect x="17" y="95" width="61" height="1" fill="#000000" />
<rect x="97" y="95" width="61" height="1" fill="#000000" />
<rect x="177" y="95" width="61" height="1" fill="#000000" />
</svg>